<svg width="72" height="100" viewBox="0 0 72 100" fill="none" xmlns="http://www.w3.org/2000/svg">
<g clip-path="url(#clip0_7101_2815)">
<path d="M47.655 30.4942L43.1081 47.1576L50.754 54.9444L67.4976 50.7024L47.655 30.4942Z" fill="#A59DD8" stroke="black" stroke-width="2.28692" stroke-miterlimit="10"/>
<path d="M22.3103 95.073L26.8558 78.4111L19.2099 70.6243L2.46777 74.8648L22.3103 95.073Z" fill="#A59DD8" stroke="black" stroke-width="2.28692" stroke-miterlimit="10"/>
<path d="M44.8458 73.461C52.7417 65.7079 54.5855 54.7816 48.964 49.0565C43.3424 43.3313 32.3843 44.9753 24.4883 52.7284C16.5924 60.4815 14.7486 71.4078 20.3701 77.1329C25.9917 82.8581 36.9498 81.2141 44.8458 73.461Z" fill="#A59DD8"/>
<mask id="mask0_7101_2815" style="mask-type:luminance" maskUnits="userSpaceOnUse" x="17" y="45" width="36" height="36">
<path d="M44.8467 73.4607C52.7427 65.7076 54.5865 54.7814 48.9649 49.0562C43.3434 43.3311 32.3853 44.975 24.4893 52.7281C16.5933 60.4812 14.7495 71.4075 20.3711 77.1326C25.9926 82.8578 36.9508 81.2138 44.8467 73.4607Z" fill="white"/>
</mask>
<g mask="url(#mask0_7101_2815)">
<path d="M6.76469 68.7629L41.2969 84.1255L42.882 80.5624L8.34979 65.1999L6.76469 68.7629Z" fill="#B7DECB"/>
<path d="M14.5147 61.1546L49.0469 76.5172L50.632 72.9541L16.0998 57.5916L14.5147 61.1546Z" fill="#B7DECB"/>
<path d="M22.2647 53.5442L56.7969 68.9067L58.382 65.3437L23.8498 49.9812L22.2647 53.5442Z" fill="#B7DECB"/>
<path d="M30.0137 45.9358L64.5459 61.2983L66.131 57.7353L31.5988 42.3728L30.0137 45.9358Z" fill="#B7DECB"/>
</g>
<path d="M44.8467 73.4612C52.7427 65.7081 54.5865 54.7818 48.9649 49.0567C43.3434 43.3315 32.3853 44.9755 24.4893 52.7286C16.5933 60.4817 14.7495 71.408 20.3711 77.1331C25.9926 82.8583 36.9508 81.2143 44.8467 73.4612Z" stroke="#1D1D1B" stroke-width="1.63766" stroke-miterlimit="10"/>
<path d="M44.8467 73.4612C52.7427 65.7081 54.5865 54.7818 48.9649 49.0567C43.3434 43.3315 32.3853 44.9755 24.4893 52.7286C16.5933 60.4817 14.7495 71.408 20.3711 77.1331C25.9926 82.8583 36.9508 81.2143 44.8467 73.4612Z" stroke="black" stroke-width="2.28692" stroke-miterlimit="10"/>
<path d="M47.2977 47.3592L49.984 42.3289" stroke="black" stroke-width="2.28692" stroke-miterlimit="10"/>
<path d="M19.6141 84.1729L22.3019 79.1411" stroke="black" stroke-width="2.28692" stroke-miterlimit="10"/>
<path d="M50.9199 51.0068L56.2476 48.2371" stroke="black" stroke-width="2.28692" stroke-miterlimit="10"/>
<path d="M12.4678 80.0182L18.7191 75.4922" stroke="black" stroke-width="2.28692" stroke-miterlimit="10"/>
</g>
<g clip-path="url(#clip1_7101_2815)">
<path d="M38.7201 67.4149L30.4 51.7683L19.2123 51.3271L9.68583 66.2698L38.7201 67.4149Z" fill="#70BF9B" stroke="black" stroke-width="2.34631" stroke-miterlimit="10"/>
<path d="M12.247 1.34536L20.5672 16.9898L31.7549 17.431L41.2812 2.4904L12.247 1.34536Z" fill="#70BF9B" stroke="black" stroke-width="2.34631" stroke-miterlimit="10"/>
<path d="M10.6064 33.3389C10.159 44.6835 16.4645 54.143 24.6901 54.4674C32.9157 54.7918 39.9466 45.8582 40.394 34.5136C40.8414 23.1691 34.5359 13.7095 26.3103 13.3851C18.0847 13.0607 11.0538 21.9943 10.6064 33.3389Z" fill="#F9E292"/>
<mask id="mask1_7101_2815" style="mask-type:luminance" maskUnits="userSpaceOnUse" x="10" y="13" width="31" height="42">
<path d="M10.6064 33.3395C10.159 44.6841 16.4645 54.1436 24.6901 54.468C32.9157 54.7924 39.9466 45.8588 40.394 34.5142C40.8414 23.1697 34.5359 13.7101 26.3103 13.3857C18.0847 13.0613 11.0538 21.9949 10.6064 33.3395Z" fill="white"/>
</mask>
<g mask="url(#mask1_7101_2815)">
<path d="M42.3623 10.0693L5.76074 22.8737L7.0819 26.6503L43.6835 13.8458L42.3623 10.0693Z" fill="#70BF9B"/>
<path d="M41.9219 21.203L5.32031 34.0074L6.64147 37.784L43.2431 24.9795L41.9219 21.203Z" fill="#70BF9B"/>
<path d="M41.4834 32.3381L4.88184 45.1426L6.20299 48.9191L42.8046 36.1146L41.4834 32.3381Z" fill="#70BF9B"/>
<path d="M41.044 43.4718L4.44238 56.2762L5.76354 60.0528L42.3651 47.2483L41.044 43.4718Z" fill="#70BF9B"/>
</g>
<path d="M10.6064 33.3383C10.159 44.6829 16.4645 54.1424 24.6901 54.4668C32.9157 54.7912 39.9466 45.8576 40.394 34.5131C40.8414 23.1685 34.5359 13.7089 26.3103 13.3845C18.0847 13.0601 11.0538 21.9937 10.6064 33.3383Z" stroke="#1D1D1B" stroke-width="1.68019" stroke-miterlimit="10"/>
<path d="M10.6064 33.3383C10.159 44.6829 16.4645 54.1424 24.6901 54.4668C32.9157 54.7912 39.9466 45.8576 40.394 34.5131C40.8414 23.1685 34.5359 13.7089 26.3103 13.3845C18.0847 13.0601 11.0538 21.9937 10.6064 33.3383Z" stroke="black" stroke-width="2.34631" stroke-miterlimit="10"/>
<path d="M27.1287 54.5632L28.6589 60.2103" stroke="black" stroke-width="2.34631" stroke-miterlimit="10"/>
<path d="M21.9255 7.59344L23.4557 13.2427" stroke="black" stroke-width="2.34631" stroke-miterlimit="10"/>
<path d="M21.8584 54.3847L19.8256 60.2003" stroke="black" stroke-width="2.34631" stroke-miterlimit="10"/>
<path d="M30.1855 5.67218L28.6976 13.4493" stroke="black" stroke-width="2.34631" stroke-miterlimit="10"/>
</g>
<defs>
<clipPath id="clip0_7101_2815">
<rect width="64.7962" height="36.5874" fill="white" transform="translate(0 73.3976) rotate(-44.4769)"/>
</clipPath>
<clipPath id="clip1_7101_2815">
<rect width="66.4788" height="37.5376" fill="white" transform="translate(44.1562 1.85112) rotate(92.2584)"/>
</clipPath>
</defs>
</svg>
